<svg xmlns="http://www.w3.org/2000/svg" width="64" height="64" fill="none" viewBox="0 0 64 64"><rect width="40" height="54" x="12" y="9" stroke="#322153" stroke-width="2" rx="4"/><path fill="#34CB79" d="M22 5C22 2.23858 24.2386 0 27 0H37C39.7614 0 42 2.23858 42 5V10H22V5Z"/><path stroke="#322153" stroke-width="2" d="M23 5C23 2.79086 24.7909 1 27 1H37C39.2091 1 41 2.79086 41 5V9H23V5Z"/><path fill="#34CB79" d="M23 38.8261L32 22V32.1739H41L32 49V38.8261H23Z"/><path stroke="#322153" stroke-linejoin="round" stroke-width="2" d="M23 38.8261L32 22V32.1739H41L32 49V38.8261H23Z"/><line x1="12" x2="53" y1="14" y2="14" stroke="#322153" stroke-width="2"/><line x1="12" x2="53" y1="58" y2="58" stroke="#322153" stroke-width="2"/></svg>